<svg width="30" height="26" viewBox="0 0 30 26" fill="none" xmlns="http://www.w3.org/2000/svg">
<path d="M0.125 5.31641C0.7125 2.46641 3.2375 0.316406 6.25 0.316406H23.75C26.7625 0.316406 29.2875 2.46641 29.875 5.31641H0.125ZM30 7.81641V19.0664C30 22.5164 27.2 25.3164 23.75 25.3164H6.25C2.8 25.3164 0 22.5164 0 19.0664V7.81641H30ZM12.5 12.8164C12.5 12.1289 11.9375 11.5664 11.25 11.5664H6.25C5.5625 11.5664 5 12.1289 5 12.8164C5 13.5039 5.5625 14.0664 6.25 14.0664H7.5V19.0664C7.5 19.7539 8.0625 20.3164 8.75 20.3164C9.4375 20.3164 10 19.7539 10 19.0664V14.0664H11.25C11.9375 14.0664 12.5 13.5039 12.5 12.8164ZM25 17.8164C25 17.1289 24.4375 16.5664 23.75 16.5664H16.25C15.5625 16.5664 15 17.1289 15 17.8164C15 18.5039 15.5625 19.0664 16.25 19.0664H23.75C24.4375 19.0664 25 18.5039 25 17.8164ZM25 12.8164C25 12.1289 24.4375 11.5664 23.75 11.5664H16.25C15.5625 11.5664 15 12.1289 15 12.8164C15 13.5039 15.5625 14.0664 16.25 14.0664H23.75C24.4375 14.0664 25 13.5039 25 12.8164Z" fill="white"/>
</svg>
