<svg width="28" height="28" viewBox="0 0 28 28" fill="none" xmlns="http://www.w3.org/2000/svg">
<path d="M25.2509 11.5C25.2509 14.1788 24.1797 15.25 21.5009 15.25C18.8222 15.25 17.7509 14.1788 17.7509 11.5C17.7509 8.82125 18.8222 7.75 21.5009 7.75C24.1797 7.75 25.2509 8.82125 25.2509 11.5ZM14.0009 0.25C11.3222 0.25 10.2509 1.32125 10.2509 4C10.2509 6.67875 11.3222 7.75 14.0009 7.75C16.6797 7.75 17.7509 6.67875 17.7509 4C17.7509 1.32125 16.6797 0.25 14.0009 0.25ZM27.7459 22.4825C27.6634 19.705 26.7709 17.7688 24.9547 16.805C24.5734 16.6025 24.0972 16.6988 23.8259 17.035C23.0209 18.03 22.2422 18.8937 21.4859 19.625C20.7197 18.8875 19.9409 18.0225 19.1534 17.0487C18.8809 16.7113 18.4034 16.615 18.0209 16.82C16.2234 17.7887 15.3409 19.7175 15.2572 22.4888L15.2522 26.4738C15.2459 26.81 15.3747 27.135 15.6097 27.375C15.8447 27.615 16.1659 27.75 16.5022 27.75H26.5022C26.8384 27.75 27.1597 27.615 27.3947 27.375C27.6297 27.135 27.7584 26.81 27.7522 26.4738L27.7459 22.4825ZM6.50092 7.77625C3.82217 7.77625 2.75092 8.8475 2.75092 11.5262C2.75092 14.205 3.82217 15.2762 6.50092 15.2762C9.17967 15.2762 10.2509 14.205 10.2509 11.5262C10.2509 8.8475 9.17967 7.77625 6.50092 7.77625ZM12.7459 22.5087C12.6634 19.7312 11.7709 17.795 9.95467 16.8313C9.57342 16.6287 9.09717 16.725 8.82592 17.0613C8.02092 18.0562 7.24217 18.92 6.48592 19.6512C5.71967 18.9137 4.94092 18.0487 4.15342 17.075C3.88092 16.7375 3.40342 16.6413 3.02092 16.8463C1.22342 17.815 0.34092 19.7437 0.25717 22.515L0.25217 26.5C0.24592 26.8363 0.37467 27.1613 0.60967 27.4013C0.84467 27.6413 1.16592 27.7762 1.50217 27.7762H11.5009C11.8372 27.7762 12.1584 27.6413 12.3934 27.4013C12.6284 27.1613 12.7572 26.8363 12.7509 26.5L12.7459 22.5087Z" fill="white"/>
</svg>
